<svg viewBox="0 0 70 24" fill="none" xmlns="http://www.w3.org/2000/svg"><path d="M43.306 17.719a2.587 2.587 0 0 1-2.586 2.586H29.26a2.566 2.566 0 0 1-2.566-2.565V6.168a2.473 2.473 0 0 1 2.474-2.474h11.664a2.473 2.473 0 0 1 2.473 2.473V17.72z" fill="#EBAB1F"/><path d="M28.263 10.16v4.221l-.753.17v-4.222l.753-.17zm1.995.544c-.465.104-.75.628-.75.628v-.394l-.732.16v2.518a.804.804 0 0 1 .728.079v-1.23c.006-.589.175-.933.527-1.012.31-.07.427.161.421.518v1.923l.718-.162.005-1.917c.006-.939-.372-1.233-.917-1.11zm1.086-.183.411-.092v-.591l.728-.162v.59l.517-.117-.007.639-.518.116-.004 1.598c.004.196.038.317.257.267.085-.019.153-.04.231-.07l.002.6c-.181.086-.291.12-.44.154-.416.096-.776-.175-.776-.727l.003-1.659-.412.093.008-.639zm2.533 1.209c0 .067-.002.122.01.187.054.324.213.576.54.502.301-.067.4-.267.459-.487l.762-.171c-.08.488-.344 1.104-1.176 1.29-.746.167-1.197-.263-1.32-1-.136-.806.074-2.009 1.18-2.257.816-.183 1.197.3 1.302.924.042.248.04.432.025.612l-1.782.4zm1.059-.793a.66.66 0 0 0-.012-.138c-.045-.265-.19-.471-.513-.399-.333.075-.497.356-.527.772l1.052-.235zm2.523-.928c-.507.12-.75.473-.754 1.165L36.7 12.49l-.727.163V9.482l.701-.158c.01.078.026.313.025.57.118-.406.28-.614.76-.722v.837zm2.581 1.707-.004.001-.73.165c-.05-.091-.1-.236-.122-.338-.103.22-.245.471-.758.587-.545.122-.855-.249-.922-.607-.16-.846.446-1.256 1.067-1.415.224-.057.412-.09.624-.144l-.011-.19c-.005-.231-.058-.513-.448-.426-.348.078-.366.298-.397.458l-.742.167c.009-.51.232-1.003 1.092-1.196.673-.151 1.233.049 1.228.876v1.504s.018.254.046.376c.03.124.078.182.078.182zm-.857-1.237a3.98 3.98 0 0 0-.475.138c-.393.161-.525.344-.476.602.033.177.16.289.395.236.502-.113.546-.588.555-.926l.001-.05zm3.48-.404c-.042.61-.326 1.17-1.143 1.353-.7.157-1.155-.212-1.293-.94-.166-.881.086-2.083 1.112-2.313.897-.202 1.254.447 1.29.843l-.706.158c-.05-.233-.164-.459-.49-.385-.514.115-.556 1.006-.464 1.494.08.423.27.575.532.517.24-.054.378-.238.434-.563l.727-.164zm-11.935 5.392-1.03-.7v1.718a.095.095 0 1 1-.19 0l-.002-2.106a.442.442 0 0 0-.883 0l.001 3.668c0 .659.536 1.196 1.195 1.196h.079c.65 0 1.17-.527 1.17-1.177l.002-1.936c0-.254-.141-.51-.343-.663zm-2.986-.547a.34.34 0 1 0 .159.659l.514-.123v-.698l-.672.162zm0 .898a.34.34 0 1 0 .159.66l.514-.124v-.697l-.672.161zm-.25 1.308a.339.339 0 0 0 .409.25l.514-.123v-.697l-.672.161a.34.34 0 0 0-.251.41z" fill="#000"/></svg>