<svg viewBox="0 0 25 24" xmlns="http://www.w3.org/2000/svg"><g clip-path="url(#clip0_527_64325)"><path d="M22.065 4.274h-1.601c.211-.335.35-.711.39-1.109.127-1.27-.54-2.41-1.678-2.914a2.808 2.808 0 0 0-3.066.494L14.088 2.58a2.145 2.145 0 0 0-3.178.002L8.885.745A2.81 2.81 0 0 0 5.819.25C4.682.756 4.014 1.895 4.14 3.166c.04.397.18.773.39 1.108H2.936c-.793 0-1.435.643-1.435 1.437v2.156c0 .397.321.718.717.718h20.566a.718.718 0 0 0 .717-.718V5.71c0-.794-.642-1.437-1.435-1.437Zm-11.717-.24v.24H6.973a1.418 1.418 0 0 1-1.37-1.763 1.41 1.41 0 0 1 .774-.936 1.379 1.379 0 0 1 1.545.235l2.426 2.203v.021Zm9.083-1.06c-.054.747-.727 1.3-1.475 1.3h-3.304v-.265l2.388-2.17c.368-.333.882-.489 1.358-.347.682.204 1.082.785 1.033 1.482ZM2.935 10.023v10.54c0 .794.642 1.437 1.435 1.437h6.695V10.023h-8.13Zm11 0V22h6.695c.793 0 1.435-.643 1.435-1.437v-10.54h-8.13Z"/></g><defs><clipPath id="clip0_527_64325"><path transform="translate(.5)" d="M0 0h24v24H0z"/></clipPath></defs></svg>