<svg viewBox="0 0 25 24" xmlns="http://www.w3.org/2000/svg"><path d="M21.456 3.602h-1.264c.018-.376.038-.751.038-1.136 0-.376-.143-.751-.4-1.026a1.326 1.326 0 0 0-.97-.44H6.14c-.371 0-.723.165-.98.44-.247.275-.399.65-.39 1.026 0 .385.02.76.039 1.136H3.544c-1.122 0-2.044.88-2.044 1.97v1.347c0 3.335 2.653 6.074 6.037 6.358.954 2.442 2.177 3.55 3.537 3.99l-.704 3.9H8.565c-.526 0-.95.41-.95.916s.424.917.95.917h7.87c.525 0 .95-.41.95-.917 0-.506-.425-.916-.95-.916H14.63l-.704-3.9c1.36-.374 2.655-1.782 3.68-4.219C21 12.16 23.5 9.173 23.5 5.627v-.055c0-1.09-.922-1.97-2.044-1.97Zm-7.758 2.117 1.179.164a.736.736 0 0 1 .599.486.71.71 0 0 1-.19.733l-.856.806.2 1.127a.724.724 0 0 1-.286.706c-.251.156-.532.19-.789.045l-1.055-.53-1.055.53a.766.766 0 0 1-.78-.045.712.712 0 0 1-.295-.706l.2-1.136-.856-.797a.709.709 0 0 1-.19-.733.75.75 0 0 1 .6-.486l1.178-.164.533-1.036a.748.748 0 0 1 .665-.394.73.73 0 0 1 .665.394l.533 1.036ZM3.4 6.919V5.572c0-.073.067-.138.143-.138H4.96c.247 2.163.76 4.105 1.454 5.736C4.655 10.51 3.4 8.852 3.4 6.919Zm18.2-1.292c0 2.043-1.103 3.848-2.758 4.902.57-1.494.98-3.216 1.198-5.095h1.417c.076 0 .143.065.143.138v.055Z"/></svg>