<svg viewBox="0 0 25 24" xmlns="http://www.w3.org/2000/svg"><g clip-path="url(#clip0_527_64357)"><path d="M7.925 2 6.883 6.803H.5c.013-.085.029-.17.048-.253l2.869-3.458A3.01 3.01 0 0 1 5.734 2h2.19Zm1.987 0h5.415l1.042 4.803H8.87L9.912 2ZM8.89 8.579l3.525 13.416c.137.008.274.007.41-.004L16.35 8.579H8.89Zm15.586 0c-.006.09-.017.18-.031.269l-9.443 12.848a3.002 3.002 0 0 1-.356.145L18.131 8.58h6.345Zm-.026-1.776.05-.108-2.99-3.603A3.01 3.01 0 0 0 19.195 2h-2.092l1.041 4.803h6.307ZM.5 8.579h6.42l3.492 13.286a3.008 3.008 0 0 1-.475-.188L.538 8.887A3.118 3.118 0 0 1 .5 8.58Z"/></g><defs><clipPath id="clip0_527_64357"><path transform="translate(.5)" d="M0 0h24v24H0z"/></clipPath></defs></svg>