<svg viewBox="0 0 25 24" xmlns="http://www.w3.org/2000/svg"><g clip-path="url(#clip0_527_64349)"><path fill-rule="evenodd" clip-rule="evenodd" d="M12.246 1.07.592 11.615c-.184.28-.092.653.278.653h2.312v10.079c0 .373.37.653.648.653h5.457c.277 0 .555-.28.555-.56v-6.999h5.364v7c0 .28.185.56.555.56h5.364c.37 0 .648-.28.648-.654V12.268h2.405c.277 0 .462-.373.185-.653L12.709 1.07c-.093-.093-.278-.093-.463 0Z"/></g><defs><clipPath id="clip0_527_64349"><path transform="translate(.5)" d="M0 0h24v24H0z"/></clipPath></defs></svg>