<svg viewBox="0 0 24 24" xmlns="http://www.w3.org/2000/svg"><g clip-path="url(#clip0_622_48269)"><path fill-rule="evenodd" clip-rule="evenodd" d="M20.216 5.817c.4-.4.936-.634 1.502-.658a2.213 2.213 0 0 1 2.107 1.345 2.227 2.227 0 0 1-.934 2.795c-.217.126-.38.344-.38.595v2.477a1.19 1.19 0 0 1-1.194 1.185h-2.2a.593.593 0 0 0-.593.593v7.933A1.917 1.917 0 0 1 16.602 24H4.13a1.898 1.898 0 0 1-1.922-1.918V1.918A1.916 1.916 0 0 1 4.13 0h12.473a1.923 1.923 0 0 1 1.922 1.918v9.31c0 .327.265.592.592.592h1.361a.593.593 0 0 0 .593-.592V9.896c0-.253-.164-.47-.383-.596a2.257 2.257 0 0 1-1.13-1.983c.023-.565.259-1.1.659-1.5ZM9.293 11.375a.593.593 0 0 0-.593.593v2.756c0 .328.265.593.593.593h1.865a.593.593 0 0 0 .593-.593v-2.756a.593.593 0 0 0-.593-.593H9.293Zm-4.564 0a.593.593 0 0 0-.592.593v2.756c0 .328.265.593.592.593h1.865a.593.593 0 0 0 .593-.593v-2.756a.593.593 0 0 0-.593-.593H4.73ZM15.721 9.15a.592.592 0 0 0 .593-.592v-5.66a.592.592 0 0 0-.592-.592H4.985a.593.593 0 0 0-.592.592v5.66c0 .327.265.592.592.592h10.737Zm0 6.167a.593.593 0 0 0 .593-.593v-2.756a.593.593 0 0 0-.592-.593h-1.866a.593.593 0 0 0-.592.593v2.756c0 .328.265.593.592.593h1.866ZM4.73 18.356a.5.5 0 0 0 0 1h11.085a.5.5 0 1 0 0-1H4.73Z"/></g><defs><clipPath id="clip0_622_48269"><path d="M0 0h24v24H0z"/></clipPath></defs></svg>