<svg viewBox="0 0 24 24" xmlns="http://www.w3.org/2000/svg"><path d="M17.513 0H6.487C4.804 0 3.5 1.45 3.5 3.188v17.624C3.5 22.55 4.858 24 6.487 24h11.026c1.63 0 2.987-1.45 2.987-3.188V3.188C20.5 1.45 19.142 0 17.513 0ZM6.324 5.217a1.039 1.039 0 0 1-.814-1.043c0-1.102 1.249-2.03 1.629-2.261a.157.157 0 0 1 .217 0c.38.232 1.63 1.16 1.63 2.26 0 .523-.326.928-.76 1.044-.381.058-.707-.058-.924-.347-.272.29-.598.405-.978.347Zm5.92 11.073c-.162.116-.38.116-.488 0-.978-.638-4.237-3.073-4.237-5.913 0-1.334.815-2.435 2.01-2.725a2.535 2.535 0 0 1 2.444.928c.543-.754 1.466-1.16 2.498-.928 1.195.232 2.064 1.391 2.01 2.725-.055 2.84-3.313 5.275-4.237 5.913Zm4.563 5.797a.158.158 0 0 1-.217 0c-.38-.232-1.63-1.16-1.63-2.26 0-.523.326-.928.76-1.044.38-.058.707.058.924.347.217-.29.597-.463.977-.347.49.116.76.521.76 1.043.055 1.101-1.194 2.03-1.574 2.261Z"/></svg>