<svg viewBox="0 0 24 24" xmlns="http://www.w3.org/2000/svg"><g clip-path="url(#clip0_622_48301)"><path d="M.618 7.667c-.56 1.868 1.197 3.02 1.197 3.02 2.234 1.465 4.81 1.453 7.366 1.267l.016.095c-2.328.752-4.874 1.603-6.287 3.756-.437.665-.737 1.508-.592 2.31a2.46 2.46 0 0 0 1.286 1.729 2.458 2.458 0 0 0 2.154.019l-.011.058s-.233 1.92 1.61 2.554c1.844.635 3.067-1.074 3.067-1.074 1.236-1.727 2.018-3.842 2.249-5.924 1.083 2.69 1.646 3.137 1.178 7.988a.441.441 0 0 0 .863.187c.592-4.864-.107-5.82-1.238-8.573 1.148 1.764 2.601 3.325 4.607 4.194 0 0 1.928.835 3.182-.659 1.253-1.493.065-3.019.065-3.019l-.04-.043a2.461 2.461 0 0 0 1.837-1.126 2.46 2.46 0 0 0 .212-2.144c-.289-.763-.98-1.331-1.697-1.677-2.32-1.117-4.94-.535-7.323.019l-.036-.09c2.287-1.157 4.502-2.472 5.662-4.879 0 0 .913-1.892-.529-3.205-1.441-1.313-3.014-.188-3.014-.188l-.045.038a2.461 2.461 0 0 0-1.05-1.88 2.46 2.46 0 0 0-2.134-.3c-.774.258-1.37.925-1.744 1.628-1.21 2.273-.735 4.914-.279 7.318l-.039.016c-.846-2.296-1.8-4.805-4.007-6.13-.683-.41-1.537-.675-2.334-.497A2.461 2.461 0 0 0 3.096 3.81a2.46 2.46 0 0 0 .068 2.153l-.058-.01c0 .001-1.929-.154-2.488 1.714Z"/></g><defs><clipPath id="clip0_622_48301"><path d="M0 0h24v24H0z"/></clipPath></defs></svg>