<svg viewBox="0 0 24 24" xmlns="http://www.w3.org/2000/svg"><path d="M12 0c1.533 0 3.02.286 4.405.832l-2.703 2.703c-2.035-1.335-4.093-2.193-5.99-2.49a9.652 9.652 0 0 0-.48-.064C8.718.338 10.332 0 12 0Zm5.929 1.561c.924.527 1.784 1.18 2.557 1.954a12.066 12.066 0 0 1 1.953 2.556L6.071 22.44a12.06 12.06 0 0 1-2.557-1.953 12.067 12.067 0 0 1-1.953-2.557L17.929 1.561Zm-11.546.965c1.76.017 3.948.761 6.167 2.162L9.182 8.056 4.156 3.029c.61-.346 1.367-.51 2.227-.502Zm-3.354 1.63 5.026 5.026-3.367 3.367c-2.085-3.302-2.714-6.535-1.66-8.394h.001Zm15.36.33L17.26 5.611l1.126 1.127 1.127-1.128-1.126-1.126ZM.981 7.231c.016.158.037.318.063.48.297 1.896 1.155 3.956 2.49 5.99L.831 16.406A11.99 11.99 0 0 1 0 12c0-1.667.338-3.282.982-4.768Zm22.187.362C23.714 8.978 24 10.467 24 12a11.97 11.97 0 0 1-.982 4.768 9.587 9.587 0 0 0-.063-.48c-.297-1.897-1.155-3.956-2.49-5.99l2.704-2.704Zm-9.04 1.15L13.001 9.87l1.127 1.127 1.127-1.128-1.126-1.126Zm5.183 2.706c2.085 3.303 2.713 6.535 1.659 8.394l-5.027-5.026 3.368-3.368ZM9.87 13.003 8.744 14.13l1.126 1.126 1.127-1.127-1.126-1.127Zm4.947 2.942 5.026 5.025c-1.859 1.055-5.092.427-8.394-1.658l3.368-3.368ZM5.612 17.26l-1.127 1.127 1.126 1.127 1.127-1.127-1.126-1.127Zm4.686 3.204c2.034 1.335 4.093 2.193 5.99 2.49.161.026.321.046.48.063a11.981 11.981 0 0 1-4.769.982 11.99 11.99 0 0 1-4.405-.832l2.704-2.703Z"/></svg>