<svg viewBox="0 0 25 24" xmlns="http://www.w3.org/2000/svg"><g clip-path="url(#clip0_527_64361)"><path d="m14.152 8.063 1.744.254c.252.036.309.213.128.392l-1.262 1.232a1 1 0 0 0-.254.785l.298 1.738c.043.254-.107.363-.333.243l-1.56-.82a.995.995 0 0 0-.824 0l-1.56.82c-.226.12-.377.01-.333-.243l.298-1.738a1 1 0 0 0-.255-.785L8.978 8.709c-.184-.178-.126-.356.128-.392l1.742-.254a.999.999 0 0 0 .667-.485l.78-1.582c.112-.23.298-.23.411 0l.78 1.582c.113.23.414.448.666.485Z"/><path fill-rule="evenodd" clip-rule="evenodd" d="M20.812 10.239c-.196-.448-.196-1.178 0-1.626l.61-1.395a1.026 1.026 0 0 0-.41-1.261l-1.31-.768c-.422-.246-.85-.838-.954-1.314l-.325-1.489a1.023 1.023 0 0 0-1.07-.778l-1.512.15c-.484.049-1.18-.177-1.544-.502L13.162.243a1.022 1.022 0 0 0-1.323 0l-1.135 1.012c-.364.325-1.06.551-1.543.503l-1.513-.15a1.024 1.024 0 0 0-1.07.78l-.324 1.487c-.105.476-.533 1.068-.954 1.314l-1.311.769a1.025 1.025 0 0 0-.41 1.261l.61 1.393c.195.447.196 1.178 0 1.626l-.61 1.395a1.025 1.025 0 0 0 .41 1.26l1.31.768c.42.247.85.838.955 1.314l.324 1.489c.105.476.586.827 1.071.778l1.51-.15c.486-.049 1.18.177 1.543.501l1.137 1.013c.363.325.96.325 1.323 0l1.135-1.011c.363-.325 1.057-.551 1.542-.504l1.513.151c.485.048.966-.303 1.07-.78l.324-1.486c.104-.476.534-1.069.953-1.314l1.313-.769c.42-.247.605-.814.409-1.261l-.61-1.393ZM12.5 14.926a5.496 5.496 0 0 1-5.492-5.5A5.498 5.498 0 0 1 12.5 3.924a5.496 5.496 0 0 1 5.492 5.501 5.495 5.495 0 0 1-5.492 5.501Z"/><path d="m7.74 18.17 1.556-.153c.271 0 .646.147.788.272l1.075.96-1.57 4.32a.653.653 0 0 1-1.214.035l-.74-1.71-1.662.835a.653.653 0 0 1-.728-.097.656.656 0 0 1-.18-.713l1.471-4.048a1.905 1.905 0 0 0 1.204.298Zm9.702.01c.367 0 .718-.116 1.02-.308l1.472 4.049a.655.655 0 0 1-.908.81l-1.662-.835-.74 1.71a.653.653 0 0 1-1.215-.036l-1.569-4.32 1.075-.959c.141-.125.511-.271.826-.271l1.518.15c.061.007.122.01.183.01Z"/></g><defs><clipPath id="clip0_527_64361"><path transform="translate(.5)" d="M0 0h24v24H0z"/></clipPath></defs></svg>