<svg width="69" height="24" viewBox="0 0 69 24" fill="none" xmlns="http://www.w3.org/2000/svg">
<path d="M15.3787 7.79736H10.7012V16.2031H15.3787V7.79736Z" fill="#FF5F00"/>
<path d="M10.9982 11.9998C10.9974 11.1903 11.1809 10.3912 11.5346 9.66307C11.8884 8.93492 12.4031 8.29679 13.04 7.79699C12.2514 7.17712 11.3042 6.79163 10.3069 6.68458C9.30956 6.57754 8.30223 6.75325 7.40003 7.19164C6.49783 7.63004 5.73717 8.31342 5.205 9.16368C4.67283 10.0139 4.39063 10.9968 4.39062 11.9998C4.39062 13.0029 4.67283 13.9857 5.205 14.836C5.73717 15.6863 6.49783 16.3697 7.40003 16.8081C8.30223 17.2464 9.30956 17.4222 10.3069 17.3151C11.3042 17.2081 12.2514 16.8226 13.04 16.2027C12.4031 15.7029 11.8884 15.0648 11.5346 14.3366C11.1809 13.6085 10.9975 12.8094 10.9982 11.9998V11.9998Z" fill="#EB001B"/>
<path d="M21.6901 12.0001C21.6901 13.0031 21.408 13.986 20.8758 14.8362C20.3437 15.6865 19.583 16.3699 18.6809 16.8083C17.7787 17.2467 16.7714 17.4224 15.774 17.3154C14.7767 17.2083 13.8296 16.8228 13.041 16.203C13.6773 15.7026 14.1916 15.0644 14.5453 14.3364C14.899 13.6083 15.0828 12.8095 15.0828 12.0001C15.0828 11.1907 14.899 10.3918 14.5453 9.66381C14.1916 8.93577 13.6773 8.29753 13.041 7.79723C13.8296 7.17736 14.7767 6.79187 15.774 6.68483C16.7714 6.57778 17.7787 6.7535 18.6809 7.1919C19.583 7.6303 20.3437 8.31368 20.8758 9.16394C21.408 10.0142 21.6901 10.997 21.6901 12.0001V12.0001Z" fill="#F79E1B"/>
<path d="M31.0336 13.9069V11.6614C31.0336 10.8024 30.5104 10.2399 29.6122 10.2399C29.1631 10.2399 28.6747 10.3882 28.339 10.8765C28.0774 10.4666 27.7024 10.2399 27.1399 10.2399C26.7649 10.2399 26.3899 10.3533 26.0934 10.7631V10.314H25.3086V13.9069H26.0934V11.923C26.0934 11.2864 26.4292 10.9855 26.9524 10.9855C27.4756 10.9855 27.7373 11.3213 27.7373 11.923V13.9069H28.5221V11.923C28.5221 11.2864 28.8971 10.9855 29.3811 10.9855C29.9043 10.9855 30.1659 11.3213 30.1659 11.923V13.9069H31.0336ZM42.6756 10.314H41.4024V9.22832H40.6175V10.314H39.9068V11.0248H40.6175V12.6729C40.6175 13.497 40.9533 13.981 41.8515 13.981C42.1872 13.981 42.5622 13.8676 42.8238 13.7194L42.5971 13.0436C42.3703 13.1918 42.1087 13.231 41.9212 13.231C41.5462 13.231 41.398 13.0043 41.398 12.6337V11.0248H42.6712V10.314H42.6756ZM49.3381 10.2355C48.8889 10.2355 48.5881 10.4623 48.4006 10.7588V10.3097H47.6157V13.9025H48.4006V11.8794C48.4006 11.282 48.6622 10.9419 49.1506 10.9419C49.2988 10.9419 49.4863 10.9811 49.6389 11.016L49.8656 10.2661C49.7087 10.2355 49.4863 10.2355 49.3381 10.2355ZM39.2702 10.6105C38.8952 10.3489 38.372 10.2355 37.8095 10.2355C36.9113 10.2355 36.3139 10.6847 36.3139 11.3954C36.3139 11.9927 36.763 12.3328 37.5479 12.4418L37.9229 12.4811C38.3327 12.5552 38.5595 12.6686 38.5595 12.8561C38.5595 13.1177 38.2586 13.3052 37.7354 13.3052C37.2121 13.3052 36.7979 13.1177 36.5363 12.9302L36.1613 13.5275C36.5712 13.8284 37.1337 13.9767 37.6961 13.9767C38.7426 13.9767 39.3443 13.4883 39.3443 12.8168C39.3443 12.1802 38.856 11.8445 38.1104 11.7311L37.7354 11.6919C37.3996 11.6526 37.138 11.5785 37.138 11.3561C37.138 11.0945 37.3996 10.9463 37.8139 10.9463C38.263 10.9463 38.7121 11.1338 38.9388 11.2471L39.2702 10.6105ZM60.1515 10.2355C59.7024 10.2355 59.4016 10.4623 59.2141 10.7588V10.3097H58.4292V13.9025H59.2141V11.8794C59.2141 11.282 59.4757 10.9419 59.964 10.9419C60.1123 10.9419 60.2998 10.9811 60.4524 11.016L60.6791 10.2748C60.5265 10.2355 60.3041 10.2355 60.1515 10.2355ZM50.1229 12.1105C50.1229 13.1962 50.8729 13.981 52.0327 13.981C52.5559 13.981 52.9309 13.8676 53.3059 13.5712L52.9309 12.9346C52.6301 13.1613 52.3336 13.2703 51.9935 13.2703C51.3569 13.2703 50.9078 12.8212 50.9078 12.1105C50.9078 11.4346 51.3569 10.9855 51.9935 10.9506C52.3292 10.9506 52.6301 11.064 52.9309 11.2864L53.3059 10.6498C52.9309 10.3489 52.5559 10.2399 52.0327 10.2399C50.8729 10.2355 50.1229 11.0248 50.1229 12.1105ZM57.3828 12.1105V10.314H56.5979V10.7631C56.3363 10.4274 55.9613 10.2399 55.473 10.2399C54.4614 10.2399 53.6765 11.0248 53.6765 12.1105C53.6765 13.1962 54.4614 13.981 55.473 13.981C55.9962 13.981 56.3712 13.7935 56.5979 13.4578V13.9069H57.3828V12.1105ZM54.5006 12.1105C54.5006 11.4739 54.9105 10.9506 55.5863 10.9506C56.2229 10.9506 56.672 11.439 56.672 12.1105C56.672 12.7471 56.2229 13.2703 55.5863 13.2703C54.9148 13.2311 54.5006 12.7427 54.5006 12.1105ZM45.1086 10.2355C44.0621 10.2355 43.3122 10.9855 43.3122 12.1061C43.3122 13.231 44.0621 13.9767 45.1478 13.9767C45.6711 13.9767 46.1943 13.8284 46.6085 13.4883L46.2335 12.9258C45.9327 13.1526 45.5577 13.3008 45.1871 13.3008C44.6987 13.3008 44.2147 13.0741 44.1014 12.4418H46.7568C46.7568 12.3285 46.7568 12.2543 46.7568 12.141C46.7917 10.9855 46.1158 10.2355 45.1086 10.2355ZM45.1086 10.9114C45.5969 10.9114 45.9327 11.2122 46.0068 11.7704H44.1363C44.2104 11.2864 44.5461 10.9114 45.1086 10.9114ZM64.6077 12.1105V8.89258H63.8229V10.7631C63.5613 10.4274 63.1863 10.2399 62.6979 10.2399C61.6863 10.2399 60.9015 11.0248 60.9015 12.1105C60.9015 13.1962 61.6863 13.981 62.6979 13.981C63.2212 13.981 63.5961 13.7935 63.8229 13.4578V13.9069H64.6077V12.1105ZM61.7256 12.1105C61.7256 11.4739 62.1355 10.9506 62.8113 10.9506C63.4479 10.9506 63.897 11.439 63.897 12.1105C63.897 12.7471 63.4479 13.2703 62.8113 13.2703C62.1355 13.2311 61.7256 12.7427 61.7256 12.1105ZM35.4506 12.1105V10.314H34.6657V10.7631C34.4041 10.4274 34.0291 10.2399 33.5408 10.2399C32.5292 10.2399 31.7444 11.0248 31.7444 12.1105C31.7444 13.1962 32.5292 13.981 33.5408 13.981C34.064 13.981 34.439 13.7935 34.6657 13.4578V13.9069H35.4506V12.1105ZM32.5336 12.1105C32.5336 11.4739 32.9434 10.9506 33.6193 10.9506C34.2559 10.9506 34.705 11.439 34.705 12.1105C34.705 12.7471 34.2559 13.2703 33.6193 13.2703C32.9434 13.2311 32.5336 12.7427 32.5336 12.1105Z" fill="black"/>
</svg>
