<svg width="69" height="24" viewBox="0 0 69 24" fill="none" xmlns="http://www.w3.org/2000/svg">
<path d="M53.5687 17.1908C52.6164 17.1908 51.6641 17.1908 50.6976 17.1908C50.5926 16.7367 50.4799 16.2924 50.3909 15.8444C50.354 15.6584 50.2879 15.5863 50.0572 15.589C48.9059 15.6023 47.7544 15.599 46.603 15.5908C46.4287 15.5896 46.3595 15.6413 46.3064 15.7842C46.1478 16.2111 45.9744 16.6338 45.7969 17.0547C45.7728 17.1119 45.693 17.1903 45.6383 17.1907C44.6005 17.1988 43.5626 17.1967 42.4949 17.1967C42.6895 16.7751 42.8738 16.3726 43.0608 15.9712C44.3989 13.0992 45.7375 10.2274 47.0761 7.3556C47.366 6.7336 47.8006 6.47314 48.5482 6.4731C49.3813 6.47305 50.2144 6.47309 51.0689 6.47309C51.1522 6.82322 51.2361 7.16824 51.3163 7.51394C51.9748 10.3521 52.6317 13.1905 53.2917 16.0284C53.3763 16.3919 53.476 16.7526 53.5687 17.1145C53.5687 17.14 53.5687 17.1654 53.5687 17.1908ZM49.811 13.3822C49.505 12.0625 49.2031 10.7605 48.9013 9.45853C48.889 9.45636 48.8766 9.45419 48.8643 9.45202C48.3383 10.7573 47.8123 12.0625 47.2804 13.3822C48.1395 13.3822 48.9619 13.3822 49.811 13.3822Z" fill="#1434CB"/>
<path d="M41.0609 6.28223C41.4398 6.34552 41.8216 6.39755 42.1968 6.4754C42.5391 6.54645 42.8743 6.64546 43.2382 6.73869C43.0548 7.51016 42.8757 8.26315 42.7006 8.99989C42.2206 8.87325 41.7617 8.72743 41.2901 8.63379C40.645 8.50571 39.9841 8.4569 39.3388 8.61867C39.0764 8.68443 38.8109 8.8107 38.6044 8.96988C38.2501 9.24292 38.2454 9.63597 38.5838 9.92263C38.8171 10.1203 39.0936 10.2826 39.3699 10.432C39.9981 10.7719 40.6577 11.0674 41.2682 11.4304C41.9872 11.8579 42.5117 12.4457 42.6217 13.2404C42.8165 14.646 42.2387 15.7531 40.9262 16.5364C40.1009 17.0289 39.1669 17.2489 38.1937 17.3304C36.8349 17.4441 35.503 17.3072 34.2046 16.9235C34.1176 16.8978 34.0328 16.8657 33.948 16.8344C33.9227 16.8251 33.9006 16.8086 33.8618 16.7868C34.0452 16.0142 34.2289 15.2404 34.4177 14.4449C34.639 14.5318 34.8468 14.619 35.0591 14.6959C36.0735 15.0636 37.121 15.2318 38.2067 15.0488C38.4892 15.0012 38.7772 14.889 39.0166 14.7446C39.5362 14.4313 39.586 13.8426 39.1129 13.4746C38.802 13.2327 38.4283 13.054 38.074 12.8599C37.5206 12.5567 36.9328 12.2983 36.4092 11.9589C35.738 11.5239 35.2518 10.9439 35.1597 10.173C35.0217 9.01872 35.4979 8.08148 36.4828 7.35323C37.3397 6.71959 38.3572 6.43839 39.4411 6.32029C39.5014 6.31372 39.56 6.29519 39.6193 6.28223C40.0998 6.28223 40.5804 6.28223 41.0609 6.28223Z" fill="#1434CB"/>
<path d="M29.8959 6.48182C29.7345 6.83096 29.5818 7.16385 29.4271 7.49596C27.9494 10.667 26.4699 13.8374 24.9983 17.0107C24.9282 17.1619 24.8424 17.2016 24.672 17.2003C23.7394 17.1934 22.8065 17.1906 21.8741 17.2022C21.6763 17.2046 21.6119 17.1423 21.5664 16.9827C20.7757 14.211 19.9719 11.4422 19.1902 8.66846C19.0468 8.15958 18.7597 7.81203 18.2213 7.59873C17.3582 7.25682 16.4622 7.01664 15.5484 6.82142C15.5079 6.81278 15.4677 6.80334 15.4297 6.7948C15.4342 6.47311 15.4342 6.47309 15.7744 6.47309C17.4065 6.47309 19.0387 6.47276 20.6709 6.47323C21.445 6.47346 22.0038 6.87801 22.1502 7.56732C22.5645 9.51871 22.9701 11.4716 23.3793 13.4239C23.3972 13.5093 23.4176 13.5942 23.4448 13.7144C23.4871 13.6429 23.5166 13.6027 23.5359 13.5588C24.5497 11.2522 25.5637 8.94576 26.5722 6.63736C26.6273 6.51134 26.6952 6.4686 26.8464 6.46968C27.7932 6.47643 28.74 6.47295 29.6868 6.47342C29.748 6.47345 29.8092 6.4782 29.8959 6.48182Z" fill="#1434CB"/>
<path d="M28.6598 17.197C29.5125 13.6123 30.3592 10.0528 31.2079 6.48454C32.2404 6.48454 33.2606 6.48454 34.3005 6.48454C34.1717 7.02801 34.0459 7.56109 33.9192 8.09402C33.2186 11.0413 32.5153 13.9882 31.8224 16.9369C31.7743 17.1418 31.6936 17.2069 31.4571 17.2028C30.6096 17.1881 29.7616 17.197 28.9138 17.197C28.8378 17.197 28.7617 17.197 28.6598 17.197Z" fill="#1434CB"/>
</svg>
